<svg width="24" height="24" viewBox="0 0 24 24" fill="none" xmlns="http://www.w3.org/2000/svg">
<g filter="url(#filter0_d_1_1435)">
<path d="M6.46953 15.9292C6.50261 16.048 6.55891 16.1591 6.63522 16.2563C6.71153 16.3534 6.80636 16.4347 6.91429 16.4954C7.02222 16.5562 7.14113 16.5952 7.26425 16.6103C7.38737 16.6254 7.51227 16.6163 7.63184 16.5834C7.7514 16.5506 7.86328 16.4946 7.96108 16.4188C8.05888 16.343 8.1407 16.2488 8.20186 16.1416C8.26301 16.0344 8.30231 15.9163 8.31751 15.794C8.33271 15.6717 8.32351 15.5476 8.29043 15.4288L6.46953 15.9292ZM1.04714 2.74466C0.927104 2.70983 0.801305 2.69903 0.677037 2.71288C0.55277 2.72673 0.432508 2.76496 0.323229 2.82534C0.213951 2.88572 0.117832 2.96706 0.0404495 3.06464C-0.0369332 3.16222 -0.094039 3.27409 -0.127555 3.39376C-0.16107 3.51343 -0.170328 3.63852 -0.154791 3.76178C-0.139254 3.88503 -0.0992317 4.00399 -0.0370462 4.11176C0.0251394 4.21953 0.10825 4.31396 0.207464 4.38957C0.306678 4.46518 0.420019 4.52046 0.540912 4.55222L1.04714 2.74466ZM22.4395 16.5046C22.5625 16.4764 22.6786 16.4239 22.7808 16.3504C22.883 16.2768 22.9693 16.1837 23.0347 16.0764C23.1001 15.9691 23.1431 15.85 23.1613 15.7259C23.1796 15.6018 23.1725 15.4754 23.1407 15.354C23.1089 15.2327 23.0529 15.1189 22.9761 15.0195C22.8993 14.92 22.8031 14.8368 22.6934 14.7749C22.5836 14.7129 22.4625 14.6735 22.3372 14.6588C22.2118 14.6441 22.0848 14.6546 21.9635 14.6896L22.4395 16.5046ZM9.85822 18.7988C10.2486 20.1998 9.39229 21.6796 7.87613 22.0711L8.35088 23.8862C10.8404 23.2445 12.3616 20.7564 11.6791 18.2984L9.85822 18.7988ZM7.87613 22.0711C6.3499 22.4652 4.81864 21.5845 4.42575 20.171L2.60485 20.6714C3.28485 23.1169 5.87138 24.5267 8.35088 23.8862L7.87613 22.0711ZM4.42575 20.171C4.03537 18.77 4.89167 17.2902 6.40783 16.8987L5.93309 15.0848C3.44352 15.7266 1.92107 18.2134 2.60485 20.6714L4.42575 20.171ZM6.40783 16.8987C7.93406 16.5046 9.46533 17.3853 9.85822 18.7988L11.6791 18.2984C10.9991 15.8529 8.41258 14.4431 5.93309 15.0836L6.40783 16.8987ZM8.29043 15.4288L5.58049 5.68429L3.7596 6.18465L6.46953 15.9292L8.29043 15.4288ZM3.19292 3.33509L1.04714 2.74466L0.540912 4.55222L2.68796 5.1439L3.19292 3.33509ZM5.58049 5.68429C5.42038 5.12136 5.11636 4.60917 4.69798 4.19752C4.27961 3.78586 3.76112 3.48876 3.19292 3.33509L2.69048 5.1439C3.22567 5.2915 3.62359 5.69554 3.7596 6.18465L5.58049 5.68429ZM11.0079 19.4567L22.4395 16.5046L21.9648 14.6896L10.5319 17.6417L11.0079 19.4567Z" fill="black"/>
<path fill-rule="evenodd" clip-rule="evenodd" d="M19.7149 0.371168C19.0954 0.0307146 18.4275 -0.0106169 17.679 0.0814919C16.9596 0.170018 16.0774 0.394995 14.9855 0.673442L12.4719 1.31373C11.3782 1.59318 10.4943 1.81904 9.82337 2.08593C9.12767 2.36269 8.56221 2.72008 8.19756 3.32266C7.82935 3.9294 7.78479 4.58708 7.88272 5.3126C7.97651 6.00736 8.2157 6.85723 8.509 7.89938L8.52098 7.94196L9.16678 10.236L9.1811 10.287C9.47332 11.3254 9.71148 12.1718 9.99353 12.8154C10.2894 13.4907 10.669 14.0294 11.2925 14.3729L11.2932 14.3732C11.9125 14.7135 12.5802 14.7553 13.3288 14.6635C14.0505 14.5751 14.936 14.3493 16.0327 14.0696L16.0777 14.0581L18.4853 13.4437L18.5205 13.4347C19.6215 13.1539 20.5105 12.9273 21.1848 12.6591C21.8808 12.3823 22.4465 12.0246 22.8117 11.4231C23.18 10.8155 23.2242 10.1575 23.1259 9.43164C23.0321 8.73891 22.7938 7.89199 22.5017 6.85421L22.4871 6.80233L21.8413 4.50949L21.8314 4.47419C21.5377 3.42797 21.2987 2.5762 21.015 1.92903C20.7189 1.25344 20.339 0.714947 19.7155 0.371507L19.7149 0.371168ZM15.26 1.97946C16.4124 1.68561 17.2149 1.482 17.8418 1.40484C18.4514 1.32983 18.7979 1.38875 19.0724 1.53945C19.3429 1.68857 19.5624 1.93632 19.7938 2.4643C20.0345 3.01344 20.2491 3.77071 20.5577 4.87039L21.2036 7.16367C21.5131 8.26327 21.7248 9.02095 21.8047 9.61059C21.8816 10.1784 21.8197 10.4873 21.6716 10.7318C21.5201 10.981 21.2598 11.1944 20.6921 11.4201C20.1095 11.6518 19.3079 11.8579 18.1556 12.1517L15.7481 12.7662C14.5959 13.06 13.7934 13.2633 13.1665 13.3401C12.5568 13.4149 12.2101 13.3557 11.9353 13.2047C11.665 13.0556 11.446 12.808 11.2148 12.2803C10.9741 11.7311 10.7596 10.9741 10.4502 9.87474L9.80443 7.58066C9.49501 6.48119 9.28363 5.72362 9.20407 5.13424C9.12742 4.56637 9.1894 4.25818 9.33755 4.01417L9.33815 4.01319C9.4889 3.76395 9.74843 3.55071 10.3162 3.32483C10.8987 3.09313 11.7001 2.88712 12.8527 2.59261L15.26 1.97946Z" fill="black"/>
</g>
<defs>
<filter id="filter0_d_1_1435" x="-4.16211" y="0.0390625" width="31.3335" height="32.0013" filterUnits="userSpaceOnUse" color-interpolation-filters="sRGB">
<feFlood flood-opacity="0" result="BackgroundImageFix"/>
<feColorMatrix in="SourceAlpha" type="matrix" values="0 0 0 0 0 0 0 0 0 0 0 0 0 0 0 0 0 0 127 0" result="hardAlpha"/>
<feOffset dy="4"/>
<feGaussianBlur stdDeviation="2"/>
<feComposite in2="hardAlpha" operator="out"/>
<feColorMatrix type="matrix" values="0 0 0 0 0 0 0 0 0 0 0 0 0 0 0 0 0 0 0.25 0"/>
<feBlend mode="normal" in2="BackgroundImageFix" result="effect1_dropShadow_1_1435"/>
<feBlend mode="normal" in="SourceGraphic" in2="effect1_dropShadow_1_1435" result="shape"/>
</filter>
</defs>
</svg>
