<svg width="20" height="20" viewBox="0 0 20 20" fill="none" xmlns="http://www.w3.org/2000/svg">
<path fill-rule="evenodd" clip-rule="evenodd" d="M16.743 11.1023L16.7407 11.1048C16.3672 11.4946 15.9808 11.8979 15.7758 12.393C15.5789 12.8695 15.5703 13.4141 15.5625 13.9414C15.5547 14.4883 15.5461 15.0609 15.3031 15.3031C15.0602 15.5453 14.4914 15.5547 13.9414 15.5625C13.4141 15.5703 12.8695 15.5789 12.393 15.7758C11.8979 15.9808 11.4946 16.3672 11.1048 16.7407L11.1023 16.743L11.1009 16.7443C10.7108 17.1181 10.3121 17.5 10 17.5C9.6875 17.5 9.28516 17.1156 8.89766 16.743C8.51016 16.3703 8.10313 15.9812 7.60703 15.7758C7.13047 15.5789 6.58594 15.5703 6.05859 15.5625C5.51172 15.5547 4.93906 15.5461 4.69687 15.3031C4.45469 15.0602 4.44531 14.4914 4.4375 13.9414C4.42969 13.4141 4.42109 12.8695 4.22422 12.393C4.01917 11.8979 3.63284 11.4946 3.25934 11.1048L3.25703 11.1023L3.25568 11.1009C2.88189 10.7108 2.5 10.3121 2.5 10C2.5 9.6875 2.88437 9.28594 3.25703 8.89766C3.62969 8.50938 4.01875 8.10313 4.22422 7.60703C4.42109 7.13047 4.42969 6.58594 4.4375 6.05859C4.44531 5.51172 4.45391 4.93906 4.69687 4.69687C4.93984 4.45469 5.50859 4.44531 6.05859 4.4375C6.58594 4.42969 7.13047 4.42109 7.60703 4.22422C8.1021 4.01917 8.50537 3.63285 8.89524 3.25934L8.89766 3.25703L8.89907 3.25568C9.28924 2.88189 9.68788 2.5 10 2.5C10.3125 2.5 10.7148 2.88437 11.1023 3.25703C11.4898 3.62969 11.8969 4.01875 12.393 4.22422C12.8695 4.42109 13.4141 4.42969 13.9414 4.4375C14.4883 4.44531 15.0609 4.45391 15.3031 4.69687C15.5453 4.93984 15.5547 5.50859 15.5625 6.05859C15.5703 6.58594 15.5789 7.13047 15.7758 7.60703C15.9808 8.1021 16.3672 8.50537 16.7407 8.89525L16.743 8.89766L16.7443 8.89907C17.1181 9.28924 17.5 9.68788 17.5 10C17.5 10.3125 17.1156 10.7141 16.743 11.1023ZM9.05901 6.45831C9.26503 6.76665 9.375 7.12916 9.375 7.5C9.375 7.99728 9.17746 8.4742 8.82583 8.82583C8.4742 9.17746 7.99728 9.375 7.5 9.375C7.12916 9.375 6.76665 9.26503 6.45831 9.05901C6.14996 8.85298 5.90964 8.56014 5.76773 8.21753C5.62581 7.87492 5.58868 7.49792 5.66103 7.13421C5.73337 6.77049 5.91195 6.4364 6.17417 6.17417C6.4364 5.91195 6.77049 5.73337 7.13421 5.66103C7.49792 5.58868 7.87492 5.62581 8.21753 5.76773C8.56014 5.90964 8.85298 6.14996 9.05901 6.45831ZM11.4583 10.941C11.7666 10.735 12.1292 10.625 12.5 10.625C12.9973 10.625 13.4742 10.8225 13.8258 11.1742C14.1775 11.5258 14.375 12.0027 14.375 12.5C14.375 12.8708 14.265 13.2334 14.059 13.5417C13.853 13.85 13.5601 14.0904 13.2175 14.2323C12.8749 14.3742 12.4979 14.4113 12.1342 14.339C11.7705 14.2666 11.4364 14.088 11.1742 13.8258C10.912 13.5636 10.7334 13.2295 10.661 12.8658C10.5887 12.5021 10.6258 12.1251 10.7677 11.7825C10.9096 11.4399 11.15 11.147 11.4583 10.941ZM7.31719 13.5672L13.5672 7.31719C13.6253 7.25912 13.6713 7.19018 13.7027 7.11431C13.7342 7.03844 13.7503 6.95712 13.7503 6.875C13.7503 6.79288 13.7342 6.71156 13.7027 6.63569C13.6713 6.55982 13.6253 6.49088 13.5672 6.43281C13.5091 6.37474 13.4402 6.32868 13.3643 6.29725C13.2884 6.26583 13.2071 6.24965 13.125 6.24965C13.0429 6.24965 12.9616 6.26583 12.8857 6.29725C12.8098 6.32868 12.7409 6.37474 12.6828 6.43281L6.43281 12.6828C6.37474 12.7409 6.32868 12.8098 6.29725 12.8857C6.26583 12.9616 6.24965 13.0429 6.24965 13.125C6.24965 13.2071 6.26583 13.2884 6.29725 13.3643C6.32868 13.4402 6.37474 13.5091 6.43281 13.5672C6.49088 13.6253 6.55982 13.6713 6.63569 13.7027C6.71156 13.7342 6.79288 13.7503 6.875 13.7503C6.95712 13.7503 7.03844 13.7342 7.11431 13.7027C7.19018 13.6713 7.25912 13.6253 7.31719 13.5672Z" fill="white"/>
<path d="M12.5 13.125C12.3764 13.125 12.2555 13.0883 12.1528 13.0197C12.05 12.951 11.9699 12.8534 11.9226 12.7392C11.8753 12.625 11.8629 12.4993 11.887 12.3781C11.9111 12.2568 11.9706 12.1455 12.0581 12.0581C12.1455 11.9706 12.2568 11.9111 12.3781 11.887C12.4993 11.8629 12.625 11.8753 12.7392 11.9226C12.8534 11.9699 12.951 12.05 13.0197 12.1528C13.0883 12.2555 13.125 12.3764 13.125 12.5C13.125 12.6658 13.0592 12.8247 12.9419 12.9419C12.8247 13.0592 12.6658 13.125 12.5 13.125Z" fill="white"/>
<path fill-rule="evenodd" clip-rule="evenodd" d="M17.6385 8.0257L17.6453 8.03281C18.1633 8.57266 18.75 9.18437 18.75 10C18.75 10.8156 18.1633 11.4273 17.6453 11.9672L17.6428 11.9699C17.349 12.2768 17.0458 12.5938 16.9312 12.8711C16.8252 13.1261 16.8188 13.5483 16.8125 13.9577L16.8125 13.9602L16.8125 13.9632C16.8007 14.7249 16.7875 15.5875 16.1875 16.1875C15.5875 16.7875 14.7249 16.8007 13.9632 16.8125L13.9602 16.8125L13.9577 16.8125C13.5483 16.8188 13.1261 16.8252 12.8711 16.9312C12.5943 17.0452 12.2799 17.3461 11.9743 17.6385L11.9672 17.6453C11.4273 18.1633 10.8156 18.75 10 18.75C9.18437 18.75 8.57188 18.1633 8.03281 17.6453L8.03014 17.6428C7.72316 17.349 7.40623 17.0458 7.12891 16.9312C6.87394 16.8252 6.45167 16.8188 6.04228 16.8125L6.03984 16.8125L6.03684 16.8125C5.27507 16.8007 4.41249 16.7875 3.8125 16.1875C3.21251 15.5875 3.19925 14.7249 3.18755 13.9632L3.1875 13.9602L3.18746 13.9577C3.18122 13.5483 3.17479 13.1261 3.06875 12.8711C2.95479 12.5943 2.65388 12.2799 2.36147 11.9743L2.35469 11.9672C1.83672 11.4273 1.25 10.8156 1.25 10C1.25 9.18437 1.83672 8.57266 2.35469 8.03281L2.35723 8.03015C2.65097 7.72317 2.95424 7.40623 3.06875 7.12891C3.17479 6.87394 3.18122 6.45167 3.18746 6.04227L3.1875 6.03984L3.1882 6.00548C3.20352 5.2515 3.22073 4.40427 3.8125 3.8125C4.41249 3.21251 5.27507 3.19925 6.03684 3.18755L6.03984 3.1875L6.04255 3.18746C6.45187 3.18122 6.87556 3.17477 7.12891 3.06875C7.40567 2.95479 7.72013 2.65389 8.02572 2.36148L8.03281 2.35469C8.57266 1.83672 9.18437 1.25 10 1.25C10.8156 1.25 11.4281 1.83672 11.9672 2.35469L11.9698 2.35723C12.2768 2.65097 12.5938 2.95424 12.8711 3.06875C13.1261 3.17479 13.5483 3.18122 13.9577 3.18746L13.9602 3.1875L13.9632 3.18755C14.7249 3.19925 15.5875 3.21251 16.1875 3.8125C16.7875 4.41249 16.8007 5.27507 16.8125 6.03684L16.8125 6.03984L16.8125 6.04228C16.8188 6.45167 16.8252 6.87394 16.9312 7.12891C17.0452 7.40567 17.3461 7.72012 17.6385 8.0257ZM16.7407 11.1048L16.743 11.1023C17.1156 10.7141 17.5 10.3125 17.5 10C17.5 9.68788 17.1181 9.28924 16.7443 8.89907L16.743 8.89766L16.7407 8.89525C16.3672 8.50537 15.9808 8.1021 15.7758 7.60703C15.5789 7.13047 15.5703 6.58594 15.5625 6.05859C15.5547 5.50859 15.5453 4.93984 15.3031 4.69687C15.0609 4.45391 14.4883 4.44531 13.9414 4.4375C13.4141 4.42969 12.8695 4.42109 12.393 4.22422C11.8969 4.01875 11.4898 3.62969 11.1023 3.25703C10.7148 2.88437 10.3125 2.5 10 2.5C9.68788 2.5 9.28924 2.88189 8.89907 3.25568L8.89766 3.25703L8.89524 3.25934C8.50537 3.63285 8.1021 4.01917 7.60703 4.22422C7.13047 4.42109 6.58594 4.42969 6.05859 4.4375C5.50859 4.44531 4.93984 4.45469 4.69687 4.69687C4.45391 4.93906 4.44531 5.51172 4.4375 6.05859C4.42969 6.58594 4.42109 7.13047 4.22422 7.60703C4.01875 8.10313 3.62969 8.50938 3.25703 8.89766C2.88437 9.28594 2.5 9.6875 2.5 10C2.5 10.3121 2.88189 10.7108 3.25568 11.1009L3.25703 11.1023L3.25934 11.1048C3.63284 11.4946 4.01917 11.8979 4.22422 12.393C4.42109 12.8695 4.42969 13.4141 4.4375 13.9414C4.44531 14.4914 4.45469 15.0602 4.69687 15.3031C4.93906 15.5461 5.51172 15.5547 6.05859 15.5625C6.58594 15.5703 7.13047 15.5789 7.60703 15.7758C8.10313 15.9812 8.51016 16.3703 8.89766 16.743C9.28516 17.1156 9.6875 17.5 10 17.5C10.3121 17.5 10.7108 17.1181 11.1009 16.7443L11.1023 16.743L11.1048 16.7407C11.4946 16.3672 11.8979 15.9808 12.393 15.7758C12.8695 15.5789 13.4141 15.5703 13.9414 15.5625C14.4914 15.5547 15.0602 15.5453 15.3031 15.3031C15.5461 15.0609 15.5547 14.4883 15.5625 13.9414C15.5703 13.4141 15.5789 12.8695 15.7758 12.393C15.9808 11.8979 16.3672 11.4946 16.7407 11.1048Z" fill="white"/>
<path d="M6.875 7.5C6.875 7.37639 6.91166 7.25555 6.98033 7.15277C7.04901 7.04999 7.14662 6.96988 7.26082 6.92257C7.37503 6.87527 7.50069 6.86289 7.62193 6.88701C7.74317 6.91112 7.85453 6.97065 7.94194 7.05806C8.02935 7.14547 8.08888 7.25683 8.11299 7.37807C8.13711 7.49931 8.12473 7.62497 8.07743 7.73918C8.03012 7.85338 7.95001 7.95099 7.84723 8.01967C7.74445 8.08834 7.62361 8.125 7.5 8.125C7.33424 8.125 7.17527 8.05915 7.05806 7.94194C6.94085 7.82473 6.875 7.66576 6.875 7.5Z" fill="white"/>
</svg>
