<svg width="24" height="24" viewBox="0 0 24 24" fill="none" xmlns="http://www.w3.org/2000/svg">
<path fill-rule="evenodd" clip-rule="evenodd" d="M12 2.75C9.54675 2.75 7.19397 3.72455 5.45926 5.45926C3.72455 7.19397 2.75 9.54675 2.75 12C2.75 14.4533 3.72455 16.806 5.45926 18.5407C7.19397 20.2754 9.54675 21.25 12 21.25C14.4533 21.25 16.806 20.2754 18.5407 18.5407C20.2754 16.806 21.25 14.4533 21.25 12C21.25 9.54675 20.2754 7.19397 18.5407 5.45926C16.806 3.72455 14.4533 2.75 12 2.75ZM1.25 12C1.25 6.063 6.063 1.25 12 1.25C17.937 1.25 22.75 6.063 22.75 12C22.75 17.937 17.937 22.75 12 22.75C6.063 22.75 1.25 17.937 1.25 12ZM11.162 6.25H13.5C14.362 6.25 15.1886 6.59241 15.7981 7.2019C16.4076 7.8114 16.75 8.63805 16.75 9.5C16.75 10.362 16.4076 11.1886 15.7981 11.7981C15.1886 12.4076 14.362 12.75 13.5 12.75H10.75V13.25H12C12.1989 13.25 12.3897 13.329 12.5303 13.4697C12.671 13.6103 12.75 13.8011 12.75 14C12.75 14.1989 12.671 14.3897 12.5303 14.5303C12.3897 14.671 12.1989 14.75 12 14.75H10.75V17C10.75 17.1989 10.671 17.3897 10.5303 17.5303C10.3897 17.671 10.1989 17.75 10 17.75C9.80109 17.75 9.61032 17.671 9.46967 17.5303C9.32902 17.3897 9.25 17.1989 9.25 17V14.75H9C8.80109 14.75 8.61032 14.671 8.46967 14.5303C8.32902 14.3897 8.25 14.1989 8.25 14C8.25 13.8011 8.32902 13.6103 8.46967 13.4697C8.61032 13.329 8.80109 13.25 9 13.25H9.25V12.75H9C8.80109 12.75 8.61032 12.671 8.46967 12.5303C8.32902 12.3897 8.25 12.1989 8.25 12C8.25 11.8011 8.32902 11.6103 8.46967 11.4697C8.61032 11.329 8.80109 11.25 9 11.25H9.25V8.162C9.25 8.016 9.25 7.865 9.272 7.726C9.32991 7.36121 9.50175 7.0241 9.76292 6.76292C10.0241 6.50175 10.3612 6.32991 10.726 6.272C10.865 6.25 11.017 6.25 11.162 6.25ZM10.749 11.25H13.499C13.9631 11.25 14.4082 11.0656 14.7364 10.7374C15.0646 10.4092 15.249 9.96413 15.249 9.5C15.249 9.03587 15.0646 8.59075 14.7364 8.26256C14.4082 7.93437 13.9631 7.75 13.499 7.75H11.199L10.959 7.753C10.9073 7.76131 10.8594 7.78567 10.8223 7.82263C10.7851 7.8596 10.7606 7.9073 10.752 7.959L10.75 8.002L10.749 8.2V11.25Z" fill="#231F20"/>
</svg>
