<svg width="24" height="21" viewBox="0 0 24 21" fill="none" xmlns="http://www.w3.org/2000/svg">
<path fill-rule="evenodd" clip-rule="evenodd" d="M0 0.807692C0 0.361616 0.366312 0 0.818182 0H2.72727C3.10271 0 3.42997 0.25224 3.52102 0.611798L4.18427 3.23077H23.1818C23.4338 3.23077 23.6717 3.34536 23.8267 3.5414C23.9818 3.73744 24.0367 3.99307 23.9756 4.23436L21.2483 15.0036C21.1572 15.3631 20.83 15.6154 20.4545 15.6154H6.27273C5.89729 15.6154 5.57003 15.3631 5.47897 15.0036L2.08845 1.61538H0.818182C0.366312 1.61538 0 1.25377 0 0.807692ZM4.59336 4.84615L6.91154 14H19.8157L22.1339 4.84615H4.59336Z" fill="#787878"/>
<path fill-rule="evenodd" clip-rule="evenodd" d="M6.27273 17.7692C5.82086 17.7692 5.45454 18.1308 5.45454 18.5769C5.45454 19.023 5.82086 19.3846 6.27273 19.3846C6.72459 19.3846 7.09091 19.023 7.09091 18.5769C7.09091 18.1308 6.72459 17.7692 6.27273 17.7692ZM3.81818 18.5769C3.81818 17.2387 4.91712 16.1538 6.27273 16.1538C7.62833 16.1538 8.72727 17.2387 8.72727 18.5769C8.72727 19.9152 7.62833 21 6.27273 21C4.91712 21 3.81818 19.9152 3.81818 18.5769Z" fill="#787878"/>
<path fill-rule="evenodd" clip-rule="evenodd" d="M20.4545 17.7692C20.0027 17.7692 19.6364 18.1308 19.6364 18.5769C19.6364 19.023 20.0027 19.3846 20.4545 19.3846C20.9064 19.3846 21.2727 19.023 21.2727 18.5769C21.2727 18.1308 20.9064 17.7692 20.4545 17.7692ZM18 18.5769C18 17.2387 19.0989 16.1538 20.4545 16.1538C21.8101 16.1538 22.9091 17.2387 22.9091 18.5769C22.9091 19.9152 21.8101 21 20.4545 21C19.0989 21 18 19.9152 18 18.5769Z" fill="#787878"/>
</svg>
