<svg width="12" height="12" viewBox="0 0 12 12" fill="none" xmlns="http://www.w3.org/2000/svg">
<path d="M0 0.75C0 0.335786 0.335786 0 0.75 0H4.5C4.91421 0 5.25 0.335786 5.25 0.75V4.5C5.25 4.91421 4.91421 5.25 4.5 5.25H0.75C0.335786 5.25 0 4.91421 0 4.5V0.75Z" fill="#38AAFC"/>
<path d="M0 7.5C0 7.08579 0.335786 6.75 0.75 6.75H4.5C4.91421 6.75 5.25 7.08579 5.25 7.5V11.25C5.25 11.6642 4.91421 12 4.5 12H0.75C0.335786 12 0 11.6642 0 11.25V7.5Z" fill="#38AAFC"/>
<path d="M6.75 0.75C6.75 0.335786 7.08579 0 7.5 0H11.25C11.6642 0 12 0.335786 12 0.75V4.5C12 4.91421 11.6642 5.25 11.25 5.25H7.5C7.08579 5.25 6.75 4.91421 6.75 4.5V0.75Z" fill="#38AAFC"/>
<path d="M6.75 7.5C6.75 7.08579 7.08579 6.75 7.5 6.75H11.25C11.6642 6.75 12 7.08579 12 7.5V11.25C12 11.6642 11.6642 12 11.25 12H7.5C7.08579 12 6.75 11.6642 6.75 11.25V7.5Z" fill="#38AAFC"/>
</svg>
