<svg width="64" height="65" viewBox="0 0 64 65" fill="none" xmlns="http://www.w3.org/2000/svg">
<path d="M12.8004 10.1016C11.103 10.1016 9.47514 10.7758 8.27491 11.9761C7.07467 13.1763 6.40039 14.8042 6.40039 16.5016V28.2488C7.31239 27.1224 8.39079 26.1368 9.60039 25.3272V16.5016C9.60039 15.6529 9.93753 14.8389 10.5376 14.2388C11.1378 13.6387 11.9517 13.3016 12.8004 13.3016H51.2004C52.0491 13.3016 52.863 13.6387 53.4631 14.2388C54.0633 14.8389 54.4004 15.6529 54.4004 16.5016V42.1016C54.4004 42.9503 54.0633 43.7642 53.4631 44.3643C52.863 44.9644 52.0491 45.3016 51.2004 45.3016H29.5748C29.3311 45.6629 29.0728 46.0141 28.8004 46.3544V48.5016H51.2004C52.8978 48.5016 54.5256 47.8273 55.7259 46.627C56.9261 45.4268 57.6004 43.799 57.6004 42.1016V16.5016C57.6004 14.8042 56.9261 13.1763 55.7259 11.9761C54.5256 10.7758 52.8978 10.1016 51.2004 10.1016H12.8004ZM16.0004 21.3016C16.0004 20.8772 16.169 20.4703 16.469 20.1702C16.7691 19.8701 17.176 19.7016 17.6004 19.7016H46.4004C46.8247 19.7016 47.2317 19.8701 47.5318 20.1702C47.8318 20.4703 48.0004 20.8772 48.0004 21.3016C48.0004 21.7259 47.8318 22.1329 47.5318 22.4329C47.2317 22.733 46.8247 22.9016 46.4004 22.9016H17.6004C17.176 22.9016 16.7691 22.733 16.469 22.4329C16.169 22.1329 16.0004 21.7259 16.0004 21.3016ZM17.6004 48.5016C14.63 48.5016 11.7812 47.3216 9.68079 45.2212C7.58039 43.1208 6.40039 40.272 6.40039 37.3016C6.40039 34.3311 7.58039 31.4824 9.68079 29.382C11.7812 27.2816 14.63 26.1016 17.6004 26.1016C20.5708 26.1016 23.4196 27.2816 25.52 29.382C27.6204 31.4824 28.8004 34.3311 28.8004 37.3016C28.8004 40.272 27.6204 43.1208 25.52 45.2212C23.4196 47.3216 20.5708 48.5016 17.6004 48.5016ZM9.60039 49.276C11.9685 50.8578 14.7525 51.7019 17.6004 51.7016C20.5604 51.7016 23.3124 50.8056 25.6004 49.276V58.1016C25.6004 58.3987 25.5176 58.69 25.3614 58.9427C25.2052 59.1955 24.9817 59.3998 24.7159 59.5326C24.4502 59.6655 24.1526 59.7218 23.8567 59.6951C23.5608 59.6684 23.2781 59.5598 23.0404 59.3816L18.5604 56.0216C18.2834 55.8139 17.9466 55.7016 17.6004 55.7016C17.2542 55.7016 16.9173 55.8139 16.6404 56.0216L12.1604 59.3816C11.9227 59.5598 11.64 59.6684 11.3441 59.6951C11.0481 59.7218 10.7506 59.6655 10.4848 59.5326C10.2191 59.3998 9.99556 59.1955 9.83935 58.9427C9.68313 58.69 9.60039 58.3987 9.60039 58.1016V49.276ZM33.6004 32.5016C33.176 32.5016 32.7691 32.6701 32.469 32.9702C32.169 33.2702 32.0004 33.6772 32.0004 34.1016C32.0004 34.5259 32.169 34.9329 32.469 35.2329C32.7691 35.533 33.176 35.7016 33.6004 35.7016H46.4004C46.8247 35.7016 47.2317 35.533 47.5318 35.2329C47.8318 34.9329 48.0004 34.5259 48.0004 34.1016C48.0004 33.6772 47.8318 33.2702 47.5318 32.9702C47.2317 32.6701 46.8247 32.5016 46.4004 32.5016H33.6004Z" fill="white"/>
</svg>
