<svg width="64" height="65" viewBox="0 0 64 65" fill="none" xmlns="http://www.w3.org/2000/svg">
<path d="M8 34.5C8 33.3954 8.89543 32.5 10 32.5H30C31.1046 32.5 32 33.3954 32 34.5C32 35.6046 31.1046 36.5 30 36.5H10C8.89543 36.5 8 35.6046 8 34.5ZM4 24.5C4 23.3954 4.89543 22.5 6 22.5H22C23.1046 22.5 24 23.3954 24 24.5C24 25.6046 23.1046 26.5 22 26.5H6C4.89543 26.5 4 25.6046 4 24.5Z" fill="white"/>
<path d="M59.8377 33.712L53.8377 19.712C53.6835 19.3523 53.4272 19.0458 53.1005 18.8303C52.7738 18.6149 52.391 18.5 51.9997 18.5H45.9997V14.5C45.9997 13.9696 45.789 13.4609 45.4139 13.0858C45.0388 12.7107 44.5301 12.5 43.9997 12.5H11.9997V16.5H41.9997V41.612C41.0889 42.1419 40.2918 42.8465 39.6541 43.6853C39.0164 44.5241 38.5507 45.4807 38.2837 46.5H25.7157C25.2289 44.6147 24.0712 42.9716 22.4597 41.8788C20.8481 40.786 18.8933 40.3184 16.9617 40.5638C15.0301 40.8091 13.2542 41.7505 11.967 43.2115C10.6799 44.6726 9.96973 46.5529 9.96973 48.5C9.96973 50.4471 10.6799 52.3274 11.967 53.7885C13.2542 55.2495 15.0301 56.1909 16.9617 56.4362C18.8933 56.6816 20.8481 56.214 22.4597 55.1212C24.0712 54.0284 25.2289 52.3853 25.7157 50.5H38.2837C38.7188 52.2165 39.7138 53.7389 41.1112 54.8263C42.5087 55.9138 44.2289 56.5043 45.9997 56.5043C47.7705 56.5043 49.4906 55.9138 50.8881 54.8263C52.2856 53.7389 53.2806 52.2165 53.7157 50.5H57.9997C58.5301 50.5 59.0388 50.2893 59.4139 49.9142C59.789 49.5391 59.9997 49.0304 59.9997 48.5V34.5C59.9996 34.2291 59.9445 33.961 59.8377 33.712ZM17.9997 52.5C17.2086 52.5 16.4352 52.2654 15.7774 51.8259C15.1196 51.3864 14.6069 50.7616 14.3042 50.0307C14.0014 49.2998 13.9222 48.4956 14.0766 47.7196C14.2309 46.9437 14.6119 46.231 15.1713 45.6716C15.7307 45.1122 16.4434 44.7312 17.2193 44.5769C17.9953 44.4225 18.7995 44.5017 19.5304 44.8045C20.2613 45.1072 20.886 45.6199 21.3256 46.2777C21.7651 46.9355 21.9997 47.7089 21.9997 48.5C21.9997 49.5609 21.5783 50.5783 20.8281 51.3284C20.078 52.0786 19.0606 52.5 17.9997 52.5ZM45.9997 22.5H50.6797L54.9677 32.5H45.9997V22.5ZM45.9997 52.5C45.2086 52.5 44.4352 52.2654 43.7774 51.8259C43.1196 51.3864 42.6069 50.7616 42.3042 50.0307C42.0014 49.2998 41.9222 48.4956 42.0766 47.7196C42.2309 46.9437 42.6119 46.231 43.1713 45.6716C43.7307 45.1122 44.4434 44.7312 45.2193 44.5769C45.9953 44.4225 46.7995 44.5017 47.5304 44.8045C48.2613 45.1072 48.886 45.6199 49.3256 46.2777C49.7651 46.9355 49.9997 47.7089 49.9997 48.5C49.9997 49.5609 49.5783 50.5783 48.8281 51.3284C48.078 52.0786 47.0606 52.5 45.9997 52.5ZM55.9997 46.5H53.7157C53.2751 44.7869 52.2786 43.2684 50.8822 42.1825C49.4858 41.0967 47.7686 40.5049 45.9997 40.5V36.5H55.9997V46.5Z" fill="white"/>
</svg>
