<svg width="62" height="59" viewBox="0 0 62 59" fill="none" xmlns="http://www.w3.org/2000/svg">
<path d="M39.8641 22.7937L37.3835 22.3814C37.3237 22.7415 37.343 23.1104 37.44 23.4623C37.5371 23.8143 37.7097 24.1408 37.9458 24.4193C38.1818 24.6978 38.4757 24.9215 38.807 25.075C39.1383 25.2284 39.499 25.3078 39.8641 25.3077V22.7937ZM2.99157 22.7937V20.2797C2.32481 20.2797 1.68535 20.5445 1.21388 21.016C0.742409 21.4875 0.477539 22.1269 0.477539 22.7937H2.99157ZM9.69566 58.8282H47.7749V53.8001H9.69566V58.8282ZM51.7973 20.2797H39.8641V25.3077H51.7973V20.2797ZM42.3446 23.206L45.0463 6.99888L40.0853 6.17093L37.3835 22.3814L42.3446 23.206ZM39.2607 0.167414H38.5434V5.19548H39.2573L39.2607 0.167414ZM28.0816 5.76533L19.6512 18.4126L23.8346 21.2015L32.265 8.55423L28.0816 5.76533ZM16.1651 20.2797H2.99157V25.3077H16.1651V20.2797ZM0.477539 22.7937V49.6101H5.50561V22.7937H0.477539ZM56.8153 51.4202L60.8378 31.3079L55.9103 30.3191L51.8878 50.4313L56.8153 51.4202ZM19.6512 18.4126C19.2688 18.9867 18.7504 19.4542 18.1423 19.7799C17.5341 20.1056 16.855 20.2762 16.1651 20.2763V25.3044C19.249 25.3044 22.125 23.7658 23.8346 21.2015L19.6512 18.4126ZM45.0463 6.99888C45.186 6.15875 45.1411 5.29494 44.9146 4.47393C44.6882 3.65292 44.2857 2.89106 43.7352 2.24129C43.1846 1.59152 42.4992 1.06943 41.7265 0.711292C40.9538 0.353155 40.1124 0.167563 39.2607 0.167414L39.2573 5.19548C39.3788 5.19578 39.5022 5.2225 39.6123 5.27378C39.7225 5.32506 39.8202 5.39969 39.8986 5.49248C39.9771 5.58527 40.0344 5.69401 40.0666 5.81116C40.0988 5.92831 40.1052 6.05107 40.0853 6.17093L45.0463 6.99888ZM51.7973 25.3044C54.4454 25.3044 56.4232 27.7246 55.9069 30.3157L60.8378 31.3045C61.1046 29.9674 61.0714 28.5844 60.7406 27.2616C60.4098 25.9388 59.7897 24.7059 58.925 23.6517C58.0603 22.5975 56.9724 21.7482 55.7399 21.1651C54.5074 20.582 53.1608 20.2796 51.7973 20.2797V25.3044ZM47.7749 58.8282C49.9058 58.8286 51.9711 58.0874 53.6193 56.7368C55.2675 55.3862 56.3969 53.5062 56.8153 51.4168L51.8878 50.428C51.6978 51.3786 51.1841 52.2339 50.4341 52.8482C49.6841 53.4625 48.7443 53.8011 47.7749 53.8001V58.8282ZM38.5434 0.167414C36.474 0.167565 34.4367 0.675233 32.6123 1.65177C30.7879 2.6283 29.2328 4.04014 28.085 5.76198L32.265 8.55423C32.954 7.52066 33.8876 6.6699 34.9829 6.08396C36.0781 5.49802 37.3012 5.19502 38.5434 5.19548V0.167414ZM9.69566 53.8001C7.38275 53.8001 5.50561 51.923 5.50561 49.6101H0.477539C0.477539 52.0549 1.44873 54.3995 3.17746 56.1283C4.9062 57.857 7.25086 58.8282 9.69566 58.8282V53.8001Z" fill="white"/>
</svg>
