<svg width="64" height="65" viewBox="0 0 64 65" fill="none" xmlns="http://www.w3.org/2000/svg">
<path d="M38.3926 23.1367C39.221 22.4613 40.4427 22.5101 41.2148 23.2822L41.3594 23.4424C41.99 24.2156 41.9901 25.3313 41.3594 26.1045L41.2148 26.2646L25.7666 41.7129C24.9944 42.4851 23.7728 42.5331 22.9443 41.8574L22.7842 41.7129C21.9605 40.8892 21.9605 39.5542 22.7842 38.7305L38.2324 23.2822L38.3926 23.1367ZM39.7236 38.1123C40.8884 38.1124 41.833 39.0569 41.833 40.2217C41.8329 41.3864 40.8884 42.331 39.7236 42.3311H39.6973C38.5327 42.3308 37.5889 41.3863 37.5889 40.2217C37.5889 39.057 38.5326 38.1126 39.6973 38.1123H39.7236ZM24.3008 22.6641C25.4657 22.6641 26.4102 23.6086 26.4102 24.7734C26.4101 25.9382 25.4656 26.8828 24.3008 26.8828H24.2754C23.1106 26.8828 22.1661 25.9382 22.166 24.7734C22.166 23.6086 23.1105 22.6641 24.2754 22.6641H24.3008Z" fill="white" stroke="white" stroke-linecap="round" stroke-linejoin="round"/>
<path fill-rule="evenodd" clip-rule="evenodd" d="M32.4783 3.17848C32.1586 3.15926 31.838 3.15926 31.5183 3.17848L31.4758 3.18137C29.95 3.29755 28.7386 3.98934 27.6934 4.80762C26.7261 5.56496 25.6662 6.62496 24.4745 7.81684L24.3687 7.92272C23.1832 9.10816 22.9582 9.28354 22.8059 9.35902L22.6313 9.43206C22.4619 9.4869 22.1594 9.52034 20.5103 9.52034H20.217L20.0502 9.52033C18.1841 9.52017 16.5243 9.52003 15.1839 9.70008C13.7273 9.89575 12.2565 10.3468 11.0534 11.5474C9.84735 12.7508 9.39612 14.2251 9.20092 15.6818C9.02191 17.0177 9.02208 18.6718 9.02228 20.5292L9.02229 20.715V21.0083C9.02229 22.7323 8.98537 22.9838 8.92736 23.1465C8.90862 23.1943 8.88973 23.2399 8.87076 23.2832C8.79452 23.4433 8.64009 23.6513 7.42467 24.8667L7.3188 24.9726C6.12691 26.1643 5.06691 27.2241 4.30958 28.1915C3.4913 29.2367 2.7995 30.448 2.68332 31.9739L2.68043 32.0163C2.66121 32.3361 2.66121 32.6566 2.68043 32.9763L2.68332 33.0188C2.7995 34.5446 3.4913 35.756 4.30958 36.8012C5.06691 37.7686 6.12691 38.8284 7.3188 40.0201L7.42467 40.126C8.67872 41.38 8.80237 41.5593 8.87321 41.7146L8.87971 41.7287C8.8953 41.7623 8.90987 41.797 8.92341 41.8327C8.98452 42 9.02229 42.2315 9.02229 43.9843L9.02228 44.4444C9.02212 46.3105 9.02198 47.9704 9.20203 49.3107C9.3977 50.7674 9.84879 52.2382 11.0493 53.4413C12.2528 54.6473 13.727 55.0985 15.1838 55.2937C16.5196 55.4727 18.1737 55.4725 20.0311 55.4723L20.5103 55.4723C22.2795 55.4723 22.4979 55.5112 22.6611 55.5719L22.6684 55.5746C22.7039 55.5877 22.7363 55.6012 22.766 55.6149L22.7723 55.6179C22.9348 55.6926 23.1205 55.8218 24.3687 57.07L24.4746 57.1759C25.6663 58.3678 26.7261 59.4277 27.6934 60.1851C28.7386 61.0033 29.95 61.6951 31.4758 61.8113L31.4789 61.8115C31.825 61.8375 32.1716 61.8375 32.5177 61.8115L32.5208 61.8113C34.0466 61.6951 35.258 61.0033 36.3032 60.1851C37.2705 59.4277 38.3303 58.3678 39.522 57.1759L39.6279 57.07C40.876 55.8218 41.0618 55.6926 41.2242 55.6179L41.2306 55.6149C41.2643 55.5993 41.299 55.5847 41.3347 55.5712C41.5021 55.5101 41.7338 55.4723 43.4863 55.4723L43.9463 55.4723C45.8125 55.4725 47.4723 55.4726 48.8126 55.2926C50.2693 55.0969 51.7401 54.6458 52.9432 53.4453C54.1492 52.2419 54.6005 50.7676 54.7957 49.3108C54.9747 47.975 54.9745 46.3209 54.9743 44.4635L54.9743 43.9843C54.9743 42.2152 55.0132 41.9967 55.0738 41.8335L55.0765 41.8262C55.0896 41.7907 55.1031 41.7583 55.1169 41.7287L55.1198 41.7223C55.1945 41.5598 55.3238 41.3741 56.5719 40.126L56.6779 40.02C57.8697 38.8283 58.9297 37.7685 59.687 36.8012C60.5053 35.756 61.1971 34.5446 61.3133 33.0188L61.3135 33.0158C61.3394 32.6697 61.3394 32.323 61.3135 31.9769L61.3133 31.9739C61.1971 30.448 60.5053 29.2367 59.687 28.1915C58.9297 27.2241 57.8697 26.1643 56.6779 24.9727L56.5719 24.8667C55.3964 23.6912 55.2133 23.4581 55.1336 23.2992L55.0626 23.1293C55.0077 22.9599 54.9743 22.6573 54.9743 21.0083L54.9743 20.5483C54.9745 18.6821 54.9746 17.0223 54.7946 15.682C54.5989 14.2253 54.1478 12.7545 52.9473 11.5514C51.7438 10.3454 50.2695 9.89417 48.8128 9.69896C47.4769 9.51995 45.8229 9.52013 43.9654 9.52032L43.4863 9.52034C41.8272 9.52034 41.5318 9.48614 41.3669 9.43186L41.1929 9.35975C41.0341 9.27932 40.7972 9.09204 39.6279 7.92272L39.522 7.81684C38.3303 6.62496 37.2705 5.56496 36.3032 4.80762C35.258 3.98934 34.0466 3.29755 32.5208 3.18137L32.4783 3.17848ZM52.6041 36.5509C51.692 37.4597 50.8049 38.3438 50.277 39.488L50.072 39.9825L50.0737 39.978C49.6355 41.1587 49.638 42.4159 49.6406 43.6924L49.641 43.9843V44.2777C49.641 46.3633 49.636 47.6594 49.5096 48.6025C49.3957 49.4523 49.2274 49.6191 49.1788 49.6673L49.176 49.67L49.1736 49.6725C49.123 49.7232 48.9543 49.8923 48.1026 50.0067C47.1601 50.1334 45.8642 50.139 43.7796 50.139H43.4863L43.195 50.1386C41.9139 50.1361 40.6601 50.1336 39.4775 50.5717L39.4673 50.5755C39.3069 50.6356 39.1488 50.7017 38.9931 50.7736C37.8474 51.3013 36.9625 52.1892 36.0528 53.1021L35.8567 53.2987C34.5263 54.6291 33.6962 55.4526 33.0154 55.9856C32.3959 56.4707 32.1744 56.489 32.1189 56.4931C32.0383 56.4992 31.9583 56.4992 31.8777 56.4931C31.8222 56.489 31.6007 56.4707 30.9812 55.9856C30.3004 55.4526 29.4703 54.6291 28.1399 53.2987L27.9438 53.1021C27.0349 52.1901 26.1509 51.303 25.0066 50.7751C24.8456 50.7006 24.6821 50.6328 24.5164 50.5716C23.3357 50.1336 22.0786 50.1361 20.8022 50.1386L20.5103 50.139H20.217C18.1313 50.139 16.8352 50.134 15.8921 50.0076C15.0424 49.8938 14.8755 49.7254 14.8273 49.6768L14.8246 49.6741L14.8221 49.6716C14.7714 49.621 14.6023 49.4523 14.4879 48.6007C14.3613 47.6581 14.3556 46.3623 14.3556 44.2777V43.9843L14.356 43.693C14.3585 42.412 14.361 41.1582 13.923 39.9755L13.9192 39.9653C13.8594 39.8061 13.7939 39.649 13.7225 39.4945C13.1982 38.3492 12.3076 37.4622 11.4035 36.5618L11.1959 36.3547C9.8655 35.0243 9.04198 34.1942 8.509 33.5135C8.05931 32.9391 8.01077 32.7068 8.00279 32.6318C7.9982 32.5415 7.9982 32.4511 8.00279 32.3609C8.01077 32.2859 8.05931 32.0536 8.509 31.4792C9.04198 30.7984 9.8655 29.9684 11.1959 28.638L11.3925 28.4418C12.3063 27.5312 13.195 26.6456 13.7225 25.4983L13.7365 25.4674C13.7977 25.3295 13.8555 25.1898 13.9101 25.0485L13.9218 25.0175C14.3611 23.836 14.3586 22.5778 14.356 21.3003L14.3556 21.0083V20.715C14.3556 18.6293 14.3606 17.3333 14.487 16.3902C14.6009 15.5404 14.7692 15.3735 14.8178 15.3254L14.8206 15.3226L14.823 15.3202C14.8736 15.2695 15.0423 15.1003 15.894 14.9859C16.8365 14.8593 18.1323 14.8537 20.217 14.8537H20.5103L20.8016 14.8541C22.0827 14.8566 23.3365 14.859 24.5191 14.421C24.5536 14.4082 24.5878 14.3947 24.6218 14.3806L24.9151 14.2579C24.9411 14.247 24.9669 14.2357 24.9926 14.224C26.1415 13.7002 27.0304 12.8077 27.9329 11.9016L28.1399 11.694C29.4703 10.3635 30.3004 9.54003 30.9812 9.00705C31.5556 8.55736 31.7878 8.50881 31.8629 8.50084C31.9531 8.49625 32.0435 8.49625 32.1337 8.50084C32.2088 8.50881 32.441 8.55736 33.0154 9.00705C33.6962 9.54003 34.5263 10.3635 35.8567 11.694L36.0528 11.8905C36.9634 12.8043 37.849 13.693 38.9963 14.2205C39.0271 14.2347 39.0581 14.2482 39.0894 14.2612L39.3854 14.3838C39.4157 14.3964 39.4463 14.4084 39.4771 14.4199C40.6587 14.8591 41.9169 14.8566 43.1943 14.8541L43.4863 14.8537H43.7796C45.8653 14.8537 47.1613 14.8587 48.1044 14.985C48.9542 15.0989 49.1211 15.2673 49.1693 15.3159L49.172 15.3186L49.1745 15.3211C49.2252 15.3717 49.3943 15.5404 49.5087 16.392C49.6353 17.3346 49.641 18.6304 49.641 20.715V21.0083L49.6406 21.2996C49.6381 22.5807 49.6356 23.8345 50.0736 25.0172C50.0864 25.0517 50.0999 25.0859 50.1141 25.1198L50.2367 25.4131C50.2487 25.4417 50.2612 25.4701 50.2741 25.4983C50.8016 26.6456 51.6903 27.5312 52.6041 28.4418L52.8007 28.638C54.1311 29.9684 54.9546 30.7984 55.4876 31.4792C55.9726 32.0988 55.991 32.3203 55.9951 32.3758C56.0011 32.4563 56.0011 32.5363 55.9951 32.6169C55.991 32.6724 55.9726 32.8939 55.4876 33.5135C54.9546 34.1942 54.1311 35.0243 52.8007 36.3547L52.6041 36.5509Z" fill="white"/>
</svg>
