<svg width="28" height="24" viewBox="0 0 28 24" fill="none" xmlns="http://www.w3.org/2000/svg">
<g clip-path="url(#clip0_1_306)">
<path fill-rule="evenodd" clip-rule="evenodd" d="M6.8826 3.22257C5.0307 4.1135 3.67442 6.23389 3.67442 8.76213C3.67442 11.3444 4.67907 13.3355 6.11684 15.0422C7.30344 16.4479 8.73898 17.6139 10.1388 18.7493C10.4722 19.0197 10.8015 19.2892 11.1267 19.558C11.7139 20.0458 12.2374 20.4724 12.7431 20.7839C13.2487 21.0954 13.654 21.2364 14 21.2364C14.346 21.2364 14.7524 21.0954 15.2569 20.7839C15.7626 20.4724 16.2861 20.0458 16.8733 19.558C17.1985 19.2884 17.5278 19.0193 17.8612 18.7505C17.8675 18.7454 17.8738 18.7403 17.88 18.7352C19.2739 17.6023 20.7019 16.4416 21.8832 15.0422C23.322 13.3355 24.3256 11.3444 24.3256 8.76213C24.3256 6.23506 22.9693 4.1135 21.1174 3.22257C19.318 2.35631 16.9001 2.58551 14.6028 5.09965C14.5247 5.18496 14.4311 5.25282 14.3275 5.29918C14.2239 5.34553 14.1125 5.36942 14 5.36942C13.8875 5.36942 13.7761 5.34553 13.6725 5.29918C13.5689 5.25282 13.4753 5.18496 13.3972 5.09965C11.0999 2.58551 8.68205 2.35631 6.8826 3.22257ZM14 3.26488C11.4192 0.831847 8.52912 0.490987 6.18605 1.61818C3.7146 2.81118 2 5.57567 2 8.7633C2 11.8957 3.23907 14.2864 4.86549 16.214C6.16707 17.7573 7.76 19.049 9.16763 20.1892C9.48763 20.4477 9.79498 20.6993 10.0897 20.9437C10.6623 21.4186 11.2763 21.924 11.898 22.3072C12.5198 22.6904 13.2298 23.0007 14 23.0007C14.7702 23.0007 15.4802 22.6892 16.102 22.3072C16.7248 21.924 17.3377 21.4186 17.9103 20.9437C18.205 20.6993 18.5124 20.4477 18.8324 20.1892C20.2389 19.049 21.8329 17.7561 23.1345 16.214C24.7609 14.2864 26 11.8957 26 8.7633C26 5.57567 24.2865 2.81118 21.814 1.62053C19.4709 0.492163 16.5808 0.833022 14 3.26488Z" fill="#DE1414"/>
<path d="M6.8826 3.22257C5.0307 4.1135 3.67442 6.23389 3.67442 8.76213C3.67442 11.3444 4.67907 13.3355 6.11684 15.0422C7.30344 16.4479 8.73898 17.6139 10.1388 18.7493C10.4722 19.0197 10.8015 19.2892 11.1267 19.558C11.7139 20.0458 12.2374 20.4724 12.7431 20.7839C13.2487 21.0954 13.654 21.2364 14 21.2364C14.346 21.2364 14.7524 21.0954 15.2569 20.7839C15.7626 20.4724 16.2861 20.0458 16.8733 19.558C17.1985 19.2884 17.5278 19.0193 17.8612 18.7505L17.88 18.7352C19.2739 17.6023 20.7019 16.4416 21.8832 15.0422C23.322 13.3355 24.3256 11.3444 24.3256 8.76213C24.3256 6.23506 22.9693 4.1135 21.1174 3.22257C19.318 2.35631 16.9001 2.58551 14.6028 5.09965C14.5247 5.18496 14.4311 5.25282 14.3275 5.29918C14.2239 5.34553 14.1125 5.36942 14 5.36942C13.8875 5.36942 13.7761 5.34553 13.6725 5.29918C13.5689 5.25282 13.4753 5.18496 13.3972 5.09965C11.0999 2.58551 8.68205 2.35631 6.8826 3.22257Z" fill="#DE1414"/>
<path fill-rule="evenodd" clip-rule="evenodd" d="M6.18605 1.61818C8.52912 0.490987 11.4192 0.831847 14 3.26488C16.5808 0.833022 19.4709 0.492163 21.814 1.62053C24.2865 2.81118 26 5.57567 26 8.7633C26 11.8957 24.7609 14.2864 23.1345 16.214C21.8329 17.7561 20.2389 19.049 18.8324 20.1892C18.5124 20.4477 18.205 20.6993 17.9103 20.9437C17.3377 21.4186 16.7248 21.924 16.102 22.3072C15.4802 22.6892 14.7702 23.0007 14 23.0007C13.2298 23.0007 12.5198 22.6904 11.898 22.3072C11.2763 21.924 10.6623 21.4186 10.0897 20.9437C9.79498 20.6993 9.48763 20.4477 9.16763 20.1892C7.76 19.049 6.16707 17.7573 4.86549 16.214C3.23907 14.2864 2 11.8957 2 8.7633C2 5.57567 3.7146 2.81118 6.18605 1.61818ZM4.10119 16.8589C2.36598 14.8023 1 12.1913 1 8.7633C1 5.22952 2.90161 2.09322 5.75133 0.717609L5.75253 0.717029C8.29243 -0.50485 11.3153 -0.208336 14.0002 1.94047C16.6849 -0.207182 19.7078 -0.50363 22.2478 0.719548C25.0998 2.0929 27 5.22992 27 8.7633C27 12.1913 25.634 14.8023 23.8988 16.8589C22.534 18.4759 20.876 19.8199 19.4852 20.9472L19.4609 20.9669C19.144 21.223 18.84 21.4718 18.5488 21.7134C17.9856 22.1804 17.319 22.7326 16.6259 23.1589C15.9362 23.5827 15.0376 24.0007 14 24.0007C12.963 24.0007 12.065 23.5847 11.3734 23.1585C10.6821 22.7325 10.0152 22.1811 9.45136 21.7135C9.1602 21.472 8.85602 21.223 8.53911 20.9669L8.53823 20.9662L8.52121 20.9524C7.12792 19.824 5.46812 18.4796 4.10119 16.8589Z" fill="#DE1414"/>
<path fill-rule="evenodd" clip-rule="evenodd" d="M6.88261 3.22191C5.0307 4.11285 3.67442 6.23323 3.67442 8.76147C3.67442 11.3438 4.67907 13.3349 6.11684 15.0415C7.30344 16.4473 8.73898 17.6132 10.1388 18.7487C10.4722 19.019 10.8015 19.2885 11.1267 19.5573C11.7139 20.0451 12.2374 20.4718 12.7431 20.7832C13.2487 21.0947 13.654 21.2358 14 21.2358C14.346 21.2358 14.7524 21.0947 15.2569 20.7832C15.7626 20.4718 16.2861 20.0451 16.8733 19.5573C17.1985 19.2878 17.5278 19.0186 17.8612 18.7498C19.261 17.6121 20.6966 16.4473 21.8832 15.0415C23.322 13.3349 24.3256 11.3438 24.3256 8.76147C24.3256 6.2344 22.9693 4.11285 21.1174 3.22191C19.318 2.35565 16.9001 2.58485 14.6028 5.09899C14.5247 5.18431 14.4311 5.25217 14.3275 5.29852C14.2239 5.34487 14.1125 5.36876 14 5.36876C13.8875 5.36876 13.7761 5.34487 13.6725 5.29852C13.5689 5.25217 13.4753 5.18431 13.3972 5.09899C11.0999 2.58485 8.68205 2.35565 6.88261 3.22191ZM14 3.26422C11.4192 0.831189 8.52912 0.49033 6.18605 1.61752C3.7146 2.81053 2 5.57502 2 8.76264C2 11.895 3.23907 14.2857 4.86549 16.2134C6.16707 17.7566 7.76 19.0484 9.16763 20.1885C9.48763 20.4471 9.79498 20.6986 10.0897 20.9431C10.6623 21.4179 11.2763 21.9234 11.898 22.3065C12.5198 22.6897 13.2298 23 14 23C14.7702 23 15.4802 22.6885 16.102 22.3065C16.7248 21.9234 17.3377 21.4179 17.9103 20.9431C18.205 20.6986 18.5124 20.4471 18.8324 20.1885C20.2389 19.0484 21.8329 17.7555 23.1345 16.2134C24.7609 14.2857 26 11.895 26 8.76264C26 5.57502 24.2865 2.81053 21.814 1.61987C19.4709 0.491505 16.5808 0.832365 14 3.26422Z" fill="white"/>
</g>
<defs>
<clipPath id="clip0_1_306">
<rect width="28" height="24" fill="white"/>
</clipPath>
</defs>
</svg>
