<svg width="24" height="22" viewBox="0 0 24 24" fill="none" xmlns="http://www.w3.org/2000/svg">
<path fill-rule="evenodd" clip-rule="evenodd" d="M4.88261 2.22191C3.0307 3.11285 1.67442 5.23323 1.67442 7.76147C1.67442 10.3438 2.67907 12.3349 4.11684 14.0415C5.30344 15.4473 6.73898 16.6132 8.13879 17.7487C8.47219 18.019 8.80149 18.2885 9.1267 18.5573C9.71386 19.0451 10.2374 19.4718 10.7431 19.7832C11.2487 20.0947 11.654 20.2358 12 20.2358C12.346 20.2358 12.7524 20.0947 13.2569 19.7832C13.7626 19.4718 14.2861 19.0451 14.8733 18.5573C15.1985 18.2878 15.5278 18.0186 15.8612 17.7498C17.261 16.6121 18.6966 15.4473 19.8832 14.0415C21.322 12.3349 22.3256 10.3438 22.3256 7.76147C22.3256 5.2344 20.9693 3.11285 19.1174 2.22191C17.318 1.35565 14.9001 1.58485 12.6028 4.09899C12.5247 4.18431 12.4311 4.25217 12.3275 4.29852C12.2239 4.34487 12.1125 4.36876 12 4.36876C11.8875 4.36876 11.7761 4.34487 11.6725 4.29852C11.5689 4.25217 11.4753 4.18431 11.3972 4.09899C9.09991 1.58485 6.68205 1.35565 4.88261 2.22191ZM12 2.26422C9.41916 -0.168811 6.52912 -0.50967 4.18605 0.617517C1.7146 1.81053 0 4.57502 0 7.76264C0 10.895 1.23907 13.2857 2.86549 15.2134C4.16707 16.7566 5.76 18.0484 7.16763 19.1885C7.48763 19.4471 7.79498 19.6986 8.08967 19.9431C8.66233 20.4179 9.27628 20.9234 9.89805 21.3065C10.5198 21.6897 11.2298 22 12 22C12.7702 22 13.4802 21.6885 14.102 21.3065C14.7248 20.9234 15.3377 20.4179 15.9103 19.9431C16.205 19.6986 16.5124 19.4471 16.8324 19.1885C18.2389 18.0484 19.8329 16.7555 21.1345 15.2134C22.7609 13.2857 24 10.895 24 7.76264C24 4.57502 22.2865 1.81053 19.814 0.619868C17.4709 -0.508495 14.5808 -0.167635 12 2.26422Z" fill="#787878"/>
</svg>
