<svg width="26" height="22" viewBox="0 0 26 22" fill="none" xmlns="http://www.w3.org/2000/svg">
<path d="M25.9492 11.6752L22.1674 2.31351C22.1049 2.15909 21.9892 2.03163 21.8407 1.95384C21.6922 1.87605 21.5207 1.85297 21.3566 1.88872L13.7091 3.57149V0.702128C13.7091 0.515912 13.6344 0.337323 13.5014 0.205648C13.3684 0.0739739 13.1881 0 13 0C12.8119 0 12.6316 0.0739739 12.4986 0.205648C12.3656 0.337323 12.2909 0.515912 12.2909 0.702128V3.88394L4.33727 5.63926C4.22459 5.66404 4.11973 5.71569 4.03179 5.78972C3.94384 5.86375 3.87548 5.95792 3.83264 6.06404L0.0508182 15.4257C0.0182485 15.507 0.0010234 15.5935 0 15.6809C0 18.2389 2.75482 19.1915 4.49091 19.1915C6.227 19.1915 8.98182 18.2389 8.98182 15.6809C8.98153 15.5915 8.96429 15.503 8.931 15.4199L5.45882 6.82585L12.2909 5.32213V20.5957H10.1636C9.97557 20.5957 9.79521 20.6697 9.66223 20.8014C9.52925 20.9331 9.45455 21.1117 9.45455 21.2979C9.45455 21.4841 9.52925 21.6627 9.66223 21.7944C9.79521 21.926 9.97557 22 10.1636 22H15.8364C16.0244 22 16.2048 21.926 16.3378 21.7944C16.4707 21.6627 16.5455 21.4841 16.5455 21.2979C16.5455 21.1117 16.4707 20.9331 16.3378 20.8014C16.2048 20.6697 16.0244 20.5957 15.8364 20.5957H13.7091V5.00968L20.3521 3.54809L17.069 11.6752C17.0357 11.7583 17.0185 11.8468 17.0182 11.9362C17.0182 14.4943 19.773 15.4468 21.5091 15.4468C23.2452 15.4468 26 14.4943 26 11.9362C25.9997 11.8468 25.9825 11.7583 25.9492 11.6752ZM4.49091 17.7872C3.76829 17.7816 3.05841 17.5982 2.42509 17.2536C1.79045 16.8873 1.46191 16.4134 1.42173 15.8061L4.49445 8.21021L7.56718 15.8061C7.45255 17.4186 5.26855 17.7872 4.49091 17.7872ZM21.5091 14.0426C20.7865 14.0369 20.0766 13.8535 19.4433 13.5089C18.8086 13.1427 18.4801 12.6687 18.4399 12.0614L21.5126 4.46553L24.5854 12.0614C24.4707 13.6739 22.2867 14.0426 21.5091 14.0426Z" fill="#787878"/>
</svg>
