<svg width="26" height="24" viewBox="0 0 26 24" fill="none" xmlns="http://www.w3.org/2000/svg">
<path fill-rule="evenodd" clip-rule="evenodd" d="M5.8826 3.22257C4.0307 4.1135 2.67442 6.23389 2.67442 8.76213C2.67442 11.3444 3.67907 13.3355 5.11684 15.0422C6.30344 16.4479 7.73898 17.6139 9.13879 18.7493C9.47219 19.0197 9.80149 19.2892 10.1267 19.558C10.7139 20.0458 11.2374 20.4724 11.7431 20.7839C12.2487 21.0954 12.654 21.2364 13 21.2364C13.346 21.2364 13.7524 21.0954 14.2569 20.7839C14.7626 20.4724 15.2861 20.0458 15.8733 19.558C16.1985 19.2884 16.5278 19.0193 16.8612 18.7505C16.8675 18.7454 16.8738 18.7403 16.88 18.7352C18.2739 17.6023 19.7019 16.4416 20.8832 15.0422C22.322 13.3355 23.3256 11.3444 23.3256 8.76213C23.3256 6.23506 21.9693 4.1135 20.1174 3.22257C18.318 2.35631 15.9001 2.58551 13.6028 5.09965C13.5247 5.18496 13.4311 5.25282 13.3275 5.29918C13.2239 5.34553 13.1125 5.36942 13 5.36942C12.8875 5.36942 12.7761 5.34553 12.6725 5.29918C12.5689 5.25282 12.4753 5.18496 12.3972 5.09965C10.0999 2.58551 7.68205 2.35631 5.8826 3.22257ZM13 3.26488C10.4192 0.831847 7.52912 0.490987 5.18605 1.61818C2.7146 2.81118 1 5.57567 1 8.7633C1 11.8957 2.23907 14.2864 3.86549 16.214C5.16707 17.7573 6.76 19.049 8.16763 20.1892C8.48763 20.4477 8.79498 20.6993 9.08967 20.9437C9.66232 21.4186 10.2763 21.924 10.898 22.3072C11.5198 22.6904 12.2298 23.0007 13 23.0007C13.7702 23.0007 14.4802 22.6892 15.102 22.3072C15.7248 21.924 16.3377 21.4186 16.9103 20.9437C17.205 20.6993 17.5124 20.4477 17.8324 20.1892C19.2389 19.049 20.8329 17.7561 22.1345 16.214C23.7609 14.2864 25 11.8957 25 8.7633C25 5.57567 23.2865 2.81118 20.814 1.62053C18.4709 0.492163 15.5808 0.833022 13 3.26488Z" fill="#DE1414"/>
<path d="M5.8826 3.22257C4.0307 4.1135 2.67442 6.23389 2.67442 8.76213C2.67442 11.3444 3.67907 13.3355 5.11684 15.0422C6.30344 16.4479 7.73898 17.6139 9.13879 18.7493C9.47219 19.0197 9.80149 19.2892 10.1267 19.558C10.7139 20.0458 11.2374 20.4724 11.7431 20.7839C12.2487 21.0954 12.654 21.2364 13 21.2364C13.346 21.2364 13.7524 21.0954 14.2569 20.7839C14.7626 20.4724 15.2861 20.0458 15.8733 19.558C16.1985 19.2884 16.5278 19.0193 16.8612 18.7505L16.88 18.7352C18.2739 17.6023 19.7019 16.4416 20.8832 15.0422C22.322 13.3355 23.3256 11.3444 23.3256 8.76213C23.3256 6.23506 21.9693 4.1135 20.1174 3.22257C18.318 2.35631 15.9001 2.58551 13.6028 5.09965C13.5247 5.18496 13.4311 5.25282 13.3275 5.29918C13.2239 5.34553 13.1125 5.36942 13 5.36942C12.8875 5.36942 12.7761 5.34553 12.6725 5.29918C12.5689 5.25282 12.4753 5.18496 12.3972 5.09965C10.0999 2.58551 7.68205 2.35631 5.8826 3.22257Z" fill="#DE1414"/>
<path fill-rule="evenodd" clip-rule="evenodd" d="M5.18605 1.61818C7.52912 0.490987 10.4192 0.831847 13 3.26488C15.5808 0.833022 18.4709 0.492163 20.814 1.62053C23.2865 2.81118 25 5.57567 25 8.7633C25 11.8957 23.7609 14.2864 22.1345 16.214C20.8329 17.7561 19.2389 19.049 17.8324 20.1892C17.5124 20.4477 17.205 20.6993 16.9103 20.9437C16.3377 21.4186 15.7248 21.924 15.102 22.3072C14.4802 22.6892 13.7702 23.0007 13 23.0007C12.2298 23.0007 11.5198 22.6904 10.898 22.3072C10.2763 21.924 9.66232 21.4186 9.08967 20.9437C8.79498 20.6993 8.48763 20.4477 8.16763 20.1892C6.76 19.049 5.16707 17.7573 3.86549 16.214C2.23907 14.2864 1 11.8957 1 8.7633C1 5.57567 2.7146 2.81118 5.18605 1.61818ZM3.10119 16.8589C1.36598 14.8023 0 12.1913 0 8.7633C0 5.22952 1.90161 2.09322 4.75133 0.717609L4.75253 0.717029C7.29243 -0.50485 10.3153 -0.208336 13.0002 1.94047C15.6849 -0.207182 18.7078 -0.50363 21.2478 0.719548C24.0998 2.0929 26 5.22992 26 8.7633C26 12.1913 24.634 14.8023 22.8988 16.8589C21.534 18.4759 19.876 19.8199 18.4852 20.9472L18.4609 20.9669C18.144 21.223 17.84 21.4718 17.5488 21.7134C16.9856 22.1804 16.319 22.7326 15.6259 23.1589C14.9362 23.5827 14.0376 24.0007 13 24.0007C11.963 24.0007 11.065 23.5847 10.3734 23.1585C9.68211 22.7325 9.01523 22.1811 8.45136 21.7135C8.1602 21.472 7.85602 21.223 7.53911 20.9669L7.53823 20.9662L7.52121 20.9524C6.12792 19.824 4.46812 18.4796 3.10119 16.8589Z" fill="#DE1414"/>
</svg>
